<?xml version="1.0" encoding="iso-8859-1"?>
<!-- Uploaded to: SVG Repo, www.svgrepo.com, Generator: SVG Repo Mixer Tools -->
<svg fill="#000000" height="800px" width="800px" version="1.1" id="Layer_1" xmlns="http://www.w3.org/2000/svg" xmlns:xlink="http://www.w3.org/1999/xlink" 
	 viewBox="0 0 512 512" xml:space="preserve">
<g>
	<g>
		<path d="M495.304,278.261h-61.217v-50.087c0-27.619-22.468-50.087-50.087-50.087s-50.087,22.468-50.087,50.087v50.087h-33.391
			V104.48c8.358,4.314,17.788,6.824,27.826,6.824c17.546,0,33.349-7.465,44.522-19.335c11.173,11.87,26.976,19.335,44.522,19.335
			c33.75,0,61.217-27.468,61.217-61.217V16.696C478.609,7.479,471.13,0,461.913,0H16.696C7.479,0,0,7.479,0,16.696v33.391
			c0,23.727,13.601,44.301,33.391,54.457v173.717H16.696C7.479,278.261,0,285.739,0,294.957v133.565
			c0,9.217,7.479,16.696,16.696,16.696h18.029c-0.787-5.468-1.333-11.013-1.333-16.696c0-64.445,52.424-116.87,116.87-116.87
			s116.87,52.424,116.87,116.87c0,5.683-0.547,11.227-1.333,16.696h68.116v50.087c0,9.217,7.479,16.696,16.696,16.696
			s16.696-7.479,16.696-16.696v-50.087h50.087c9.217,0,16.696-7.479,16.696-16.696v-116.87h61.217
			c9.217,0,16.696-7.479,16.696-16.696C512,285.739,504.521,278.261,495.304,278.261z M267.13,278.261h-33.391V244.87H100.174
			v33.391H66.783V111.009c15.302-1.397,28.98-8.441,38.957-19.04c11.173,11.87,26.976,19.335,44.522,19.335
			s33.349-7.465,44.522-19.335c11.173,11.87,26.976,19.335,44.522,19.335c10.039,0,19.468-2.509,27.826-6.823V278.261z"/>
	</g>
</g>
<g>
	<g>
		<path d="M150.261,345.043c-46.032,0-83.478,37.446-83.478,83.478c0,46.032,37.446,83.478,83.478,83.478
			c46.032,0,83.478-37.446,83.478-83.478C233.739,382.49,196.293,345.043,150.261,345.043z M150.261,445.217
			c-9.22,0-16.696-7.475-16.696-16.696s7.475-16.696,16.696-16.696s16.696,7.475,16.696,16.696S159.481,445.217,150.261,445.217z"/>
	</g>
</g>
<g>
	<g>
		<path d="M166.957,144.696c-36.826,0-66.783,29.956-66.783,66.783h133.565C233.739,174.652,203.783,144.696,166.957,144.696z"/>
	</g>
</g>
</svg>